<svg stroke-width="2" viewBox="0 0 173 187" fill="none" stroke="white" xmlns="http://www.w3.org/2000/svg">
    <path d="M97 179L143.5 148M145 146.5V153.5L97 185.5C85 183.5 55.1 176.6 31.5 165" stroke="inherit" />
    <path d="M31 159.5V164.5L32 165.5" stroke="inherit" />
    <path d="M43.5 152.5L31 159.5C37.6667 164.667 60.2 175.8 97 179" stroke="inherit" />
    <path d="M63.5 157.5C64.5 159.833 71 164.3 89 163.5" stroke="inherit" />
    <path
        d="M98.0945 136L98 140.5L7 126V40.5C25.3333 34.8333 69.7 23.1 100.5 21.5L100.384 27M98.0945 136C74.563 133.667 24.9 127.8 14.5 123C11.8333 108.5 7.6 72.2 12 43C22.423 39.5 54.692 31.4 100.384 27M98.0945 136L100.384 27M119.5 0.5C78.3 2.1 23 20.1667 0.5 29L3.5 136C6.36157 137.488 10.1034 138.939 14.5 140.342M119.5 0.5L115.5 158M119.5 0.5L134.5 4V8M115.5 158L130 155M115.5 158C112.502 157.69 109.14 157.32 105.5 156.894M134.5 8L147 15V21.5C149.333 24.6667 153.7 32.9 152.5 40.5L172.5 55L170.5 129.5L149 142.5V144.5L130 155M134.5 8L130 155M130 155L105.5 167.5M14.5 140.342V145.5L105.5 167.5M14.5 140.342C37.6549 147.732 78.9701 153.792 105.5 156.894M105.5 167.5V156.894"
        stroke="inherit" />
</svg>