<svg stroke-width="2" viewBox="0 0 173 159" fill="none" xmlns="http://www.w3.org/2000/svg">
    <path
        d="M98.0945 136L98 140.5L7 126V40.5C25.3333 34.8333 69.7 23.1 100.5 21.5L100.384 27M98.0945 136C74.563 133.667 24.9 127.8 14.5 123C11.8333 108.5 7.6 72.2 12 43C22.423 39.5 54.692 31.4 100.384 27M98.0945 136L100.384 27M119.5 0.5C78.3 2.1 23 20.1667 0.5 29L3.5 136C23.5 146.4 86.5 155 115.5 158M119.5 0.5L115.5 158M119.5 0.5L134.5 4V8M115.5 158L130 155M134.5 8L147 15V21.5C149.333 24.6667 153.7 32.9 152.5 40.5L172.5 55L170.5 129.5L149 142.5V144.5L130 155M134.5 8L130 155"
        stroke="white" />
</svg>